<svg xmlns="http://www.w3.org/2000/svg" viewBox="0 0 16 16">
  <defs>
    <style>
      .cls-1 {
        fill: #fff;
        stroke: #707070;
        opacity: 0;
      }

      .cls-2 {
        stroke: none;
      }

      .cls-3 {
        fill: none;
      }
    </style>
  </defs>
  <g id="cancel-tracing-point" transform="translate(-409 -630)">
    <g id="矩形_372" data-name="矩形 372" class="cls-1" transform="translate(409 630)">
      <rect class="cls-2" width="16" height="16"/>
      <rect class="cls-3" x="0.5" y="0.5" width="15" height="15"/>
    </g>
    <path id="矩形_170" data-name="矩形 170" d="M389,495v-1h1v1Zm-3,0v-1h1v1Zm-2,0v-1h1v1Zm-3,0v-1h1v1Zm-1,0v-1h1v1Zm8-1h-1v-2h-1v-1h1v1h2v2Zm-5,0v-1h1v1Zm-1,0v-1h1v1Zm-3,0v-1h1v1Zm-1,0v-1h1v1Zm11-2v-1h1v1Zm-8,0v-1h1v1Zm-1,0v-2h1v2Zm-1,0v-3h1v3Zm3-1v-1h1v1Zm1-1v-1h1v1Zm1-1v-1h1v1Zm-4,0v-1h1v1Zm5-1v-1h1v1Zm-4,0v-1h1v1Zm5-1v-1h-1v-1h1v1h1v1Zm-4,0v-1h1v1Zm5-1v-1h-1v-1h-1v-1h1v1h1v1h1v1Zm-4,0v-1h1v1Zm1-1v-1h1v1Z" transform="translate(33 149)"/>
  </g>
</svg>
