<svg xmlns="http://www.w3.org/2000/svg" viewBox="0 0 16 16">
  <defs>
    <style>
      .cls-1 {
        fill: #fff;
        stroke: #707070;
        opacity: 0;
      }

      .cls-2 {
        stroke: none;
      }

      .cls-3 {
        fill: none;
      }
    </style>
  </defs>
  <g fill="#666" id="remove-tracing-point" transform="translate(-455 -467)">
    <g id="矩形_373" data-name="矩形 373" class="cls-1" transform="translate(455 467)">
      <rect class="cls-2" width="16" height="16"/>
      <rect class="cls-3" x="0.5" y="0.5" width="15" height="15"/>
    </g>
    <path id="矩形_173" data-name="矩形 173" d="M414,496v-1h1v1Zm4-1v-1h3v1Zm-3,0v-1h-1v-1h-1v-1h-1v-1h-1v-1h-1v-1h1v1h1v1h1v1h1v1h1v1h1v1Zm-2,0v-1h1v1Zm3-1v-3h-1v-1h-1v-1h-1v1h-1v-2h3v1h1v1h1v4Zm0-4h0Zm-4,4v-1h1v1Zm6-1v-1h2v1Zm-3,0v-1h1v1Zm-4,0v-1h1v1Zm3-1v-1h1v1Zm-4,0v-1h1v1Zm3-1v-1h1v1Zm-4,0v-1h1v1Zm8-1v-1h1v1Zm1-1v0h-1v-2h1v1h1v1Zm-2,0v-1h1v1Zm-5,0v-1h1v1Zm5-1v-1h1v1Zm-1,0v-1h1v1Zm3-1v-1h1v1Zm-2,0v-1h1v1Zm3-1v-1h1v1Zm1-1v-1h1v1Z" transform="translate(48 -15)"/>
  </g>
</svg>
