<svg xmlns="http://www.w3.org/2000/svg" viewBox="0 0 16 16">
  <defs>
    <style>
      .cls-1 {
        fill: #fff;
        stroke: #707070;
        opacity: 0;
      }

      .cls-2 {
        stroke: none;
      }

      .cls-3 {
        fill: none;
      }
    </style>
  </defs>
  <g id="setting" transform="translate(-528 -814)">
    <g id="矩形_415" data-name="矩形 415" class="cls-1" transform="translate(528 814)">
      <rect class="cls-2" width="16" height="16"/>
      <rect class="cls-3" x="0.5" y="0.5" width="15" height="15"/>
    </g>
    <path id="联合_45" data-name="联合 45" d="M-5376,3008v-1h-2v-1h-1v-2h-1v-4h1v3h1v2h1v1h2v1h3v1Zm5-1h-2v-1h2v-1h1v-2h1v-3h1v4h-1v2h-1v1Zm-4-4v-2h2v2Zm5-2v-2h-1v-1h2v3Zm-9,0v-3h1v3Zm1-2v-2h1v2Zm5-1v-1h3v1Zm-4,0v-1h2v1Zm1-1v-1h4v1Z" transform="translate(5910 -2180)"/>
  </g>
</svg>
