<svg xmlns="http://www.w3.org/2000/svg" viewBox="0 0 16 16">
  <defs>
    <style>
      .cls-1 {
        fill: #fff;
        stroke: #707070;
        opacity: 0;
      }

      .cls-2 {
        stroke: none;
      }

      .cls-3 {
        fill: none;
      }
    </style>
  </defs>
  <g id="tracing-point" transform="translate(-161 -814)">
    <g id="矩形_376" data-name="矩形 376" class="cls-1" transform="translate(161 814)">
      <rect class="cls-2" width="16" height="16"/>
      <rect class="cls-3" x="0.5" y="0.5" width="15" height="15"/>
    </g>
    <path id="矩形_174" data-name="矩形 174" d="M443,521v-1h2v1Zm-6,0v-1h3v1Zm8-1v-1h2v1Zm-5,0v-1h3v1Zm-5,0v-1h2v1Zm5-2v-1h1v1Zm-1,0v-2h1v2Zm-1,0v-3h1v3Zm3-1v-1h1v1Zm1-1v-1h1v1Zm1-1v-1h1v1Zm-4,0v-1h1v1Zm5-1v-1h1v1Zm-4,0v-1h1v1Zm5-1v-1h-1v-1h1v1h1v1Zm-4,0v-1h1v1Zm5-1v-1h-1v-1h-1v-1h1v1h1v1h1v1Zm-4,0v-1h1v1Zm1-1v-1h1v1Z" transform="translate(-272 307)"/>
  </g>
</svg>
