<svg xmlns="http://www.w3.org/2000/svg" viewBox="0 0 16 16">
  <defs>
    <style>
      .cls-1 {
        fill: #fff;
        stroke: #707070;
        opacity: 0;
      }

      .cls-2 {
        stroke: none;
      }

      .cls-3 {
        fill: none;
      }
    </style>
  </defs>
  <g id="advance-search" transform="translate(-343 -816)">
    <g id="矩形_414" data-name="矩形 414" class="cls-1" transform="translate(343 816)">
      <rect class="cls-2" width="16" height="16"/>
      <rect class="cls-3" x="0.5" y="0.5" width="15" height="15"/>
    </g>
    <path id="联合_34" data-name="联合 34" d="M-5389,3008v-1h-1v-1h-1v-1h1v1h1v1h1v1Zm-11,0v-12h9v1h-8v10h4v1Zm6-1v-1h-1v-1h-1v-3h1v3h1v1h3v1Zm4-2v-3h-1v-1h-3v-1h3v1h1v1h1v3Zm-5-3v-1h1v1Zm5-3v-1h-1v-1h1v1h1v1Zm-8,0v-1h3v1Z" transform="translate(5745 -2178)"/>
  </g>
</svg>
