<svg xmlns="http://www.w3.org/2000/svg" viewBox="0 0 16 16">
  <defs>
    <style>
      .cls-1 {
        fill: #fff;
        stroke: #707070;
        opacity: 0;
      }

      .cls-2 {
        stroke: none;
      }

      .cls-3 {
        fill: none;
      }
    </style>
  </defs>
  <g id="clear-all" transform="translate(-1311 -405)">
    <g id="符号_46_5" data-name="符号 46 – 5" transform="translate(-3 35)">
      <g id="矩形_186" data-name="矩形 186" class="cls-1" transform="translate(1314 370)">
        <rect class="cls-2" width="16" height="16"/>
        <rect class="cls-3" x="0.5" y="0.5" width="15" height="15"/>
      </g>
      <path id="联合_47" data-name="联合 47" d="M-4722,2562v-1h1v1Zm-3,0v-1h1v1Zm-8,0v-1h6v1Zm10-1h-1v-1h1v-1h1v2Zm-1-1v-1h1v1Zm2-1v-1h1v1Zm-3,0v-1h1v1Zm-7,0v-1h6v1Zm1-3v-1h9v1Zm1-3v-1h9v1Z" transform="translate(6049 -2179)"/>
    </g>
  </g>
</svg>
