<svg xmlns="http://www.w3.org/2000/svg" viewBox="0 0 16 16">
  <defs>
    <style>
      .cls-1 {
        fill: #fff;
        stroke: #707070;
        opacity: 0;
      }

      .cls-2 {
        stroke: none;
      }

      .cls-3 {
        fill: none;
      }
    </style>
  </defs>
  <g fill="#666" id="delete" transform="translate(-702 -813)">
    <g id="矩形_499" data-name="矩形 499" class="cls-1" transform="translate(702 813)">
      <rect class="cls-2" width="16" height="16"/>
      <rect class="cls-3" x="0.5" y="0.5" width="15" height="15"/>
    </g>
    <path id="联合_48" data-name="联合 48" d="M-5393,3004v-1h1v1Zm-7,0v-1h1v1Zm6-1v-1h1v1Zm-5,0v-1h1v1Zm4-1v-1h1v1Zm-3,0v-1h1v1Zm2-1h-1v-1h1v-1h1v2Zm-1-1v-1h1v1Zm2-1v-1h1v1Zm-3,0v-1h1v1Zm4-1v-1h1v1Zm-5,0v-1h1v1Zm6-1v-1h1v1Zm-7,0v-1h1v1Z" transform="translate(6106 -2179)"/>
  </g>
</svg>
