<svg xmlns="http://www.w3.org/2000/svg" viewBox="0 0 16 16">
  <defs>
    <style>
      .cls-1 {
        fill: #fff;
        stroke: #707070;
        opacity: 0;
      }

      <!--.cls-2 {-->
        <!--stroke: rgba(0,0,0,0);-->
      <!--}-->

      .cls-3 {
        stroke: none;
      }

      .cls-4 {
        fill: none;
      }
    </style>
  </defs>
  <g fill="#666" id="filter-selected" transform="translate(-678 -763)">
    <g id="矩形_262" data-name="矩形 262" class="cls-1" transform="translate(678 763)">
      <rect class="cls-3" width="16" height="16"/>
      <rect class="cls-4" x="0.5" y="0.5" width="15" height="15"/>
    </g>
    <path id="联合_50" data-name="联合 50" d="M-5395,3008v-7h-1v-1h-1v-1h-1v-1h-1v-1h-1v-1h11v1h-1v1h-1v-1h-7v1h1v1h1v1h1v1h1v7Zm3-2v-1h4v1Zm0-3v-1h4v1Zm-2-2v-1h1v1Zm1-1v-1h1v1Zm1-1v-1h1v1Z" transform="translate(6080 -2231)"/>
  </g>
</svg>
