<svg xmlns="http://www.w3.org/2000/svg" viewBox="0 0 16 16">
  <defs>
    <style>
      .cls-1 {
        fill: #fff;
        stroke: #707070;
        opacity: 0;
      }

      .cls-2 {
        stroke: none;
      }

      .cls-3 {
        fill: none;
      }
    </style>
  </defs>
  <g id="print" transform="translate(-1011 -81)">
    <g id="矩形_341" data-name="矩形 341" class="cls-1" transform="translate(1011 81)">
      <rect class="cls-2" width="16" height="16"/>
      <rect class="cls-3" x="0.5" y="0.5" width="15" height="15"/>
    </g>
    <path id="矩形_192" data-name="矩形 192" d="M1108,95V94h1v1Zm-7,0V92h1v2h1V91h1v3h1V91h1v3h2v1Zm8-1V91h-7v1h-3V85h2V83h8v1h-7v1h7V83h1v2h1v1h-11v5h1V90h9v1h1V85h1v7h-2v2Zm-2-1V91h1v2Zm1-5V87h1v1Zm-2,0V87h1v1Z" transform="translate(-86)"/>
  </g>
</svg>
