<svg xmlns="http://www.w3.org/2000/svg" viewBox="0 0 16 16">
  <defs>
    <style>
      .cls-1 {
        fill: #fff;
        stroke: #707070;
        opacity: 0;
      }

      .cls-2 {
        stroke: none;
      }

      .cls-3 {
        fill: none;
      }
    </style>
  </defs>
  <g fill="#666" id="unfold" transform="translate(-801 -813)">
    <g id="矩形_554" data-name="矩形 554" class="cls-1" transform="translate(801 813)">
      <rect class="cls-2" width="16" height="16"/>
      <rect class="cls-3" x="0.5" y="0.5" width="15" height="15"/>
    </g>
    <path id="联合_56" data-name="联合 56" d="M-5396,3003v-1h1v1Zm-4,0v-1h1v1Zm5-1v-1h1v1Zm-4,0v-1h1v1Zm5-1v-1h1v1Zm-4,0v-1h1v1Zm5-1v-1h1v1Zm-4,0v-1h1v1Zm3-1v-1h1v1Zm-4,0v-1h1v1Zm3-1v-1h1v1Zm-4,0v-1h1v1Zm3-1v-1h1v1Zm-4,0v-1h1v1Z" transform="translate(6205 -2178)"/>
  </g>
</svg>
