<svg xmlns="http://www.w3.org/2000/svg" viewBox="0 0 16 16">
  <defs>
    <style>
      .cls-1 {
        fill: #fff;
        stroke: #707070;
        opacity: 0;
      }

      .cls-2 {
        stroke: none;
      }

      .cls-3 {
        fill: none;
      }
    </style>
  </defs>
  <g id="user" transform="translate(-1144 -1591)">
    <g id="矩形_4817" data-name="矩形 4817" class="cls-1" transform="translate(1144 1591)">
      <rect class="cls-2" width="16" height="16"/>
      <rect class="cls-3" x="0.5" y="0.5" width="15" height="15"/>
    </g>
    <path id="椭圆_2" data-name="椭圆 2" d="M1200,1605a4,4,0,0,0-8,0h0a.5.5,0,1,1-1,0,5.007,5.007,0,0,1,2.955-4.563,4,4,0,1,1,4.09,0A5.009,5.009,0,0,1,1201,1605h0a.5.5,0,1,1-1,0Zm-7-8a3,3,0,1,0,3-3A3,3,0,0,0,1193,1597Z" transform="translate(-44)"/>
  </g>
</svg>
