<svg xmlns="http://www.w3.org/2000/svg" viewBox="0 0 16 16">
  <defs>
    <style>
      .cls-1 {
        fill: #fff;
        stroke: #707070;
        opacity: 0;
      }

      .cls-2 {
        stroke: none;
      }

      .cls-3 {
        fill: none;
      }
    </style>
  </defs>
  <g id="DS-files" transform="translate(-1376 -516)">
    <g id="矩形_369" data-name="矩形 369" class="cls-1" transform="translate(1376 516)">
      <rect class="cls-2" width="16" height="16"/>
      <rect class="cls-3" x="0.5" y="0.5" width="15" height="15"/>
    </g>
    <path id="矩形_167" data-name="矩形 167" d="M976,20H964V8h12V20h0Zm-11-1h10V17H965V16h10V13H965V12h10V9H965Zm8-4V14h1v1Zm-2,0V14h1v1Zm-2,0V14h1v1Zm4-4V10h1v1Zm-2,0V10h1v1Zm-2,0V10h1v1Z" transform="translate(414 510)"/>
  </g>
</svg>
