<svg xmlns="http://www.w3.org/2000/svg" viewBox="0 0 16 16">
  <defs>
    <style>
      .cls-1 {
        fill: #fff;
        stroke: #707070;
        opacity: 0;
      }

      .cls-2 {
        stroke: none;
      }

      .cls-3 {
        fill: none;
      }
    </style>
  </defs>
  <g id="choose-lines" transform="translate(-133 -814)">
    <g id="矩形_375" data-name="矩形 375" class="cls-1" transform="translate(133 814)">
      <rect class="cls-2" width="16" height="16"/>
      <rect class="cls-3" x="0.5" y="0.5" width="15" height="15"/>
    </g>
    <path id="联合_44" data-name="联合 44" d="M-5393,3008h-7v-12h1v11h2v-2h1v2h2v-5h1v5h2v-3h1v3h2v1Zm-5-5v-1h1v1Zm1-1v-1h1v1Zm5-1v-1h1v1Zm-4,0v-1h1v1Zm5-1v-1h1v1Zm-2,0v-1h1v1Zm-2,0v-1h1v1Zm5-1v-1h1v1Zm-4,0v-1h1v1Zm5-1v-1h1v1Z" transform="translate(5535 -2180)"/>
  </g>
</svg>
